<?xml version="1.0" standalone="no"?>
<!DOCTYPE svg PUBLIC "-//W3C//DTD SVG 20010904//EN"
 "http://www.w3.org/TR/2001/REC-SVG-20010904/DTD/svg10.dtd">
<svg version="1.0" xmlns="http://www.w3.org/2000/svg"
 width="512.000000pt" height="512.000000pt" viewBox="0 0 512.000000 512.000000"
 preserveAspectRatio="xMidYMid meet">
<metadata>
Created by potrace 1.11, written by Peter Selinger 2001-2013
</metadata>
<g transform="translate(0.000000,512.000000) scale(0.100000,-0.100000)"
fill="#000000" stroke="none">
<path d="M0 2560 l0 -2560 2560 0 2560 0 0 2560 0 2560 -2560 0 -2560 0 0
-2560z m1309 1873 c16 -43 158 -404 315 -802 157 -398 286 -728 286 -733 0 -5
-15 -14 -32 -20 -18 -6 -84 -37 -146 -68 -62 -31 -114 -54 -116 -51 -2 3 -115
287 -252 631 l-249 625 -3 -858 -2 -857 -53 -73 c-101 -136 -190 -296 -285
-507 -8 -19 -11 340 -11 1383 l-1 1407 259 0 260 0 30 -77z m3051 -1335 c0
-776 -2 -1409 -4 -1407 -2 2 -24 50 -49 106 -59 133 -151 295 -232 408 l-65
90 0 859 c0 481 -4 856 -9 850 -4 -5 -113 -274 -241 -599 -128 -324 -238 -605
-246 -623 l-13 -33 -73 40 c-40 21 -102 51 -138 66 -36 15 -69 30 -73 35 -7 6
344 915 600 1558 l25 62 259 0 259 0 0 -1412z m-2025 -1268 c120 -305 220
-558 224 -562 3 -4 71 158 150 360 79 202 180 458 223 569 l80 202 73 -34 c41
-18 106 -54 145 -79 l70 -46 -15 -37 c-8 -21 -136 -344 -284 -718 l-268 -680
-170 -3 -170 -2 -282 712 c-156 391 -285 716 -287 722 -8 22 271 176 287 159
3 -5 104 -258 224 -563z"/>
</g>
</svg>
